<?xml version="1.0" encoding="UTF-8"?>
<svg id="Layer_2" xmlns="http://www.w3.org/2000/svg" viewBox="0 0 157.14 121.39">
    <g id="Layer_1-2">
        <path fill="#FFFFFF"
            d="M62.24,72.05c-1.07,7.48-2.17,14.99-2.43,22.56-.23,6.84-.28,14.81,4.75,20.11,2.31,2.43,5.66,4.07,9.06,3.88s6.37-1.93,8.61-4.39c4.45-4.88,7.03-11.66,8.92-17.89,2.15-7.07,3.29-14.39,4.42-21.68,.3-1.93-.49-4.13-2.62-4.61-1.83-.42-4.24,.55-4.61,2.62-1.91,10.66-3.74,21.44-2.13,32.26,.74,4.98,2.32,10.44,7.01,13.08,2.32,1.31,5.21,1.79,7.75,.87s4.29-2.7,5.82-4.81c3.34-4.61,5.79-9.98,7.98-15.2,.76-1.81-.82-4.2-2.62-4.61-2.2-.5-3.8,.68-4.61,2.62-1.53,3.65-3.56,7.54-5.7,11.06-.45,.75-.91,1.49-1.42,2.2-.25,.35-.04,.06,.02,0-.15,.2-.32,.39-.49,.57-.13,.14-.26,.27-.39,.4-.08,.08-.69,.58-.22,.24-.28,.21-.61,.41-.93,.55,.36-.15,.19,0-.13-.02,.07,0,.52-.03,.07,0-.19,0-.37,0-.56,0,.16,0,.66,.12-.11-.05,0,0-.59-.18-.27-.06,.27,.1-.35-.18-.41-.21-.41-.23-.97-.64-1.38-1.22s-.75-1.3-.96-1.91c-.63-1.8-1.02-3.92-1.25-5.67-.57-4.46-.45-9-.04-13.46,.45-4.89,1.32-9.72,2.2-14.62l-7.23-1.99c-1.77,11.42-3.58,23.38-9.34,33.3-.32,.55-.65,1.08-1.01,1.61-.14,.21-.29,.42-.44,.63,.39-.53-.38,.45-.37,.44-.37,.43-.77,.84-1.19,1.22-.11,.1-.73,.58-.25,.23-.3,.22-.61,.39-.92,.59-.89,.58,.32-.07-.25,.15-.28,.11-.57,.17-.86,.26-.14,.04-.7,.07-.09,.03-.31,.02-.61,.02-.92,0-.61-.04,.74,.26-.26-.07-.23-.08-.47-.13-.7-.22,.67,.25-.39-.22-.44-.25-.1-.06-.96-.64-.47-.26-.49-.38-.94-.84-1.35-1.32,.1,.12,.32,.5-.1-.14-.17-.26-.34-.52-.49-.8-.6-1.07-.98-2.35-1.25-3.78-.21-1.11-.28-2.19-.33-3.59-.07-1.7-.07-3.39-.03-5.09,.17-7.25,1.17-14.42,2.19-21.55,.28-1.93-.47-4.12-2.62-4.61-1.77-.4-4.32,.54-4.61,2.62h0Z" />
        <path fill="#FFFFFF"
            d="M114.62,102.49c9.86-2.8,19.92-9.41,22.02-20.17,.49-2.53,.69-5.3-.26-7.75-1.08-2.8-3.32-4.97-6.31-5.61-5.62-1.22-10.35,2.17-13.73,6.34-6.57,8.08-10.28,18.87-8.62,29.29,.79,4.96,3.33,9.48,7.49,12.36s9.71,3.4,14.66,2.74c10.99-1.48,20.92-8.39,26.77-17.71,1.08-1.72,.36-4.13-1.35-5.13-1.8-1.05-4.05-.37-5.13,1.35-1.86,2.96-4.45,5.87-7.29,8.05,.3-.23-.34,.25-.39,.29-.16,.11-.31,.23-.47,.34-.42,.3-.85,.58-1.28,.86-.87,.56-1.76,1.07-2.67,1.55-1.9,1-2.75,1.35-4.8,1.99-.92,.29-1.85,.54-2.79,.74-.44,.1-.88,.18-1.33,.25-.76,.13-.33,.05-.16,.03-.32,.04-.64,.07-.97,.1-.97,.08-1.94,.1-2.91,.05-.19,0-.38-.02-.58-.04-.09,0-.87-.08-.45-.03,.37,.04-.24-.04-.26-.04-.31-.06-.62-.12-.93-.19-.43-.1-.85-.21-1.27-.35-.24-.08-.47-.16-.71-.25,.52,.19-.05-.02-.14-.06-.39-.19-.78-.39-1.15-.62-.21-.13-.42-.27-.63-.41-.53-.36,.56,.55-.29-.22-.32-.29-.63-.58-.92-.89-.12-.13-.77-.96-.45-.51-.56-.79-1.05-1.64-1.43-2.53,.23,.54,0-.03-.03-.12-.08-.23-.16-.46-.24-.7-.13-.41-.25-.83-.35-1.25s-.18-.85-.27-1.28c-.14-.75-.06-.29-.03-.12-.04-.31-.07-.62-.1-.94-.16-1.91-.1-3.84,.14-5.75,.08-.68-.07,.44,.04-.23,.04-.27,.09-.54,.14-.81,.09-.47,.18-.95,.29-1.42,.24-1.08,.53-2.14,.87-3.19,.67-2.08,1.18-3.26,2.22-5.18,.92-1.71,2.24-3.71,3.21-4.89,.64-.77,1.3-1.53,2.02-2.23,.76-.74,.88-.88,1.88-1.45,.06-.04,.77-.4,.42-.25s.36-.13,.45-.16c.22-.07,1.26-.21,.58-.17,.24-.02,.48-.01,.72-.02,.04,0,.62,.05,.21,0-.47-.06,1.44,.22,.61,.17,.08,0,.63,.41,.1,0,.14,.11,.26,.24,.38,.36,.39,.41-.23-.39,.06,.11,.21,.36,.05,0,.02-.08,.07,.15,.38,1.43,.29,.8,.08,.49,.07,1.01,.05,1.5,0,.25-.03,.5-.05,.74-.05,.64,.02,0-.06,.36-.12,.58-.24,1.15-.41,1.71-.15,.5-.31,1-.51,1.48,.17-.42-.34,.71-.43,.89-1.12,2.16-2.04,3.34-3.83,5.01-1.54,1.44-3.24,2.55-5.34,3.63-1.07,.55-1.87,.9-2.72,1.22-1.17,.44-2.36,.82-3.57,1.16-1.95,.55-3.16,2.65-2.62,4.61s2.66,3.17,4.61,2.62h0Z" />
        <g>
            <path fill="#FFFFFF"
                d="M36.74,11.31l2.2,7.21c.08,.25,.15,.52,.05,.76-.13,.31-.5,.44-.82,.53-4.7,1.39-9.02,4.04-12.41,7.58-1.13-1.01-1.75-2.45-2.33-3.85l-2.93-6.98L2.22,24.56C18.11,13.69,36.2,6.04,55.07,2.22" />
            <path fill="#FFFFFF"
                d="M34.57,11.91l1.17,3.83,.55,1.8c.16,.52,.51,1.21,.45,1.74l.66-1.59c.23-.06,.23-.06-.03,.01-.13,.04-.26,.08-.39,.12-.32,.1-.65,.21-.97,.33-.69,.25-1.38,.53-2.06,.83-1.19,.51-2.34,1.1-3.45,1.77-2.32,1.39-4.46,3.11-6.34,5.05h3.18c-1.21-1.17-1.75-2.86-2.39-4.38l-2.29-5.45c-.61-1.45-1.85-1.98-3.31-1.34L1.08,22.61l2.27,3.89C15.6,18.16,29.06,11.71,43.27,7.49c4.09-1.21,8.23-2.24,12.4-3.09,2.84-.58,1.64-4.92-1.2-4.34C39.67,3.08,25.33,8.4,12.14,15.77c-3.79,2.11-7.47,4.4-11.06,6.85-2.44,1.66-.35,5.03,2.27,3.89l18.28-7.99-3.31-1.34,2.66,6.33c.84,1.99,1.6,3.96,3.18,5.5,.86,.84,2.32,.89,3.18,0,2.81-2.9,6.23-5.21,10.06-6.56,1-.35,2.19-.54,2.98-1.3,.98-.95,1.01-2.21,.66-3.43-.66-2.34-1.42-4.66-2.14-6.98-.84-2.76-5.19-1.58-4.34,1.2h0Z" />
        </g>
        <path fill="#FFFFFF"
            d="M5.78,23.41c.12,7.23,.37,14.47,.74,21.69,.07,1.44,2.32,1.45,2.25,0-.37-7.23-.62-14.46-.74-21.69-.02-1.45-2.27-1.45-2.25,0h0Z" />
        <path fill="#FFFFFF"
            d="M6.07,45.34c-.13,.77-.32,1.52-.59,2.25-.23,.63-.58,1.33-.99,1.99-.76,1.23-1.83,2.38-2.98,3.19-.5,.35-.73,.98-.4,1.54,.29,.49,1.04,.76,1.54,.4,2.92-2.06,5.01-5.23,5.6-8.77,.1-.6-.16-1.21-.79-1.38-.54-.15-1.28,.18-1.38,.79h0Z" />
        <path fill="#FFFFFF"
            d="M7.1,45.85c.12,3.1,.52,6.19,1.2,9.22,.13,.59,.82,.94,1.38,.79,.61-.17,.92-.79,.79-1.38-.64-2.84-1.01-5.71-1.12-8.62-.02-.61-.5-1.12-1.12-1.12-.59,0-1.15,.51-1.12,1.12h0Z" />
        <path fill="#FFFFFF"
            d="M6.7,44.13c.87,3.75,4.15,6.87,7.97,7.48,.58,.09,1.24-.15,1.38-.79,.12-.54-.16-1.29-.79-1.38-.41-.06-.81-.16-1.2-.28-.2-.06-.39-.13-.58-.21-.25-.09,.11,.06-.11-.05-.09-.04-.19-.09-.28-.13-.37-.18-.73-.39-1.07-.62-.09-.06-.17-.12-.25-.18-.21-.15,.08,.08-.1-.08-.17-.14-.34-.29-.51-.44-.3-.28-.58-.58-.85-.9-.03-.04-.07-.08-.1-.12,.06,.08,.07,.09,.02,.02-.06-.08-.12-.17-.18-.25-.12-.17-.23-.34-.33-.52s-.2-.36-.3-.54c-.05-.09-.09-.18-.13-.28-.02-.05-.04-.09-.06-.14,.04,.1,.04,.11,.01,.03-.16-.4-.29-.81-.38-1.23-.13-.57-.82-.97-1.38-.79-.6,.19-.93,.77-.79,1.38h0Z" />
        <path fill="#FFFFFF"
            d="M31.34,19.06c-6,24.64-11.57,49.39-16.71,74.23-1.47,7.1-2.9,14.2-4.29,21.31-.38,1.92,.54,4.14,2.62,4.61,1.86,.42,4.21-.56,4.61-2.62,4.89-24.89,10.21-49.69,15.96-74.39,1.64-7.06,3.32-14.11,5.04-21.15,.46-1.9-.6-4.15-2.62-4.61s-4.12,.58-4.61,2.62h0Z" />
        <path fill="#FFFFFF"
            d="M24.45,83.51c.15-.66,.36-1.29,.55-1.93,.31-1.02-.33,.61,.14-.35,.15-.31,.3-.61,.46-.91,.33-.61,.71-1.18,1.09-1.76,.6-.92-.46,.49,.27-.35,.31-.36,.62-.72,.94-1.06,1.12-1.17,1.9-1.79,2.87-2.43,.62-.41,1.27-.79,1.93-1.14,.33-.18,.67-.34,1.01-.5,.41-.18,.46-.21,.15-.07,.24-.09,.47-.19,.71-.27,.72-.26,1.46-.49,2.21-.67,.97-.24,1.01-.27,1.86-.27l.41,.02c-.33-.02-.27,.02,.19,.12l-.27-.08c.37,.24,.37,.24,.02,.01l.22,.24c-.26-.34-.27-.33-.03,.03,.19,.39,.2,.38,.04-.01,.08,.2,.15,.41,.21,.62,.98,3.2,.92,6.84,.74,10.33-.39,7.6-2.16,14.92-2.67,22.65-.24,3.69-.65,8.23,1.56,11.44s6.37,4.56,10.15,4.16c8.54-.92,15.44-8.46,18.43-16.08,.72-1.83-.79-4.2-2.62-4.61-2.15-.49-3.85,.66-4.61,2.62-.44,1.13,.32-.58-.22,.51-.17,.35-.34,.69-.52,1.03-.37,.69-.78,1.36-1.21,2-.79,1.16-1.78,2.27-3.09,3.46-1.16,1.06-2.06,1.75-3.6,2.58-1.28,.69-2.7,1.1-4.06,1.06-.07,0-1.23-.19-.5-.03-.36-.08-.72-.17-1.07-.28-.92-.28,.36,.32-.41-.21-.86-.59,.35,.52-.33-.24l-.23-.24c.22,.28,.21,.22-.04-.17,.16,.65-.14-.58-.13-.57-.27-1.02-.05,.51-.07-.55-.01-.57-.05-1.13-.05-1.7-.03-3.68,.39-7.63,.87-11.04,1.08-7.63,2.61-15.38,1.77-23.11-.41-3.75-1.03-7.93-4.47-10.17s-7.71-1.15-11.16,.21c-6.89,2.72-12.98,8.31-14.66,15.75-.43,1.91,.58,4.15,2.62,4.61,1.9,.43,4.15-.57,4.61-2.62h0Z" />
    </g>
</svg>